# xmcd CD database file
#
# Track frame offsets:
#	150
#	25741
#	56447
#	87928
#	120813
#	153438
#	185577
#	214184
#	247969
#	278222
#	304491
#
# Disc length: 4479 seconds
#
# Revision: 0
# Processed by: cddbd v1.5.1PL0 Copyright (c) Steve Scherf et al.
# Submitted via: CDex 1.60beta1
#
DISCID=8e117d0b
DTITLE=REDALiCE - HAPPY DRIVE！Promotion disk
DYEAR=1900
DGENRE=未分類 (日本)
TTITLE0=99RB (z3ta rmx)
TTITLE1=mother earth
TTITLE2=Psychedelic Syndrome
TTITLE3=Eight Force
TTITLE4=Comes Again Tomorrow
TTITLE5=After The Rain (REDALiCE RMX)
TTITLE6=Lab it!
TTITLE7=Stones (hardcore rmx)
TTITLE8=Like a Party?
TTITLE9=StarLight RAVE
TTITLE10=MC.Lawlence
EXTD=
EXTT0=
EXTT1=
EXTT2=
EXTT3=
EXTT4=
EXTT5=
EXTT6=
EXTT7=
EXTT8=
EXTT9=
EXTT10=
PLAYORDER=
